<svg width="1893" height="1331" viewBox="0 0 1893 1331" fill="none" xmlns="http://www.w3.org/2000/svg">
<g opacity="0.2">
<path d="M50.4738 1296.5L60.0008 1296.5L60.0008 1271L34.5469 1271L34.5469 1280.59L50.4738 1280.59L50.4738 1296.5Z" fill="#FFCF2D"/>
<path d="M33.1613 1313.71L42.7611 1313.71L42.7611 1288.29L17.2344 1288.29L17.2344 1297.8L33.1613 1297.8L33.1613 1313.71Z" fill="#FFCF2D"/>
<path d="M15.9269 1331L25.5267 1331L25.5267 1305.5L0 1305.5L-3.65458e-07 1315.09L15.9269 1315.09L15.9269 1331Z" fill="#FFCF2D"/>
</g>
<g opacity="0.12" clip-path="url(#clip0_2617_456)">
<path d="M1772.08 363C1705.15 363 1651 417.147 1651 484.083C1651 550.853 1705.15 605.166 1772.08 605.166C1838.85 605.166 1893.17 551.019 1893.17 484.083C1893 417.147 1838.85 363 1772.08 363ZM1772.08 597.36C1709.47 597.36 1658.81 546.701 1658.81 484.083C1658.81 421.465 1709.47 370.806 1772.08 370.806C1834.7 370.806 1885.36 421.465 1885.36 484.083C1885.36 546.535 1834.53 597.36 1772.08 597.36Z" fill="#FFCF2D"/>
<path d="M1772.08 389.076C1719.76 389.076 1677.24 431.596 1677.24 483.916C1677.24 536.236 1719.76 578.756 1772.08 578.756C1824.4 578.756 1866.92 536.402 1866.92 484.082C1866.92 431.596 1824.4 389.076 1772.08 389.076ZM1772.08 564.306C1727.74 564.306 1691.69 528.264 1691.69 483.916C1691.69 439.569 1727.74 403.526 1772.08 403.526C1816.43 403.526 1852.47 439.569 1852.47 483.916C1852.47 528.264 1816.43 564.306 1772.08 564.306Z" fill="#FFCF2D"/>
</g>
<path d="M20.8804 33.7043C20.8804 34.9762 20.0489 35.9301 18.9402 35.9301C17.8315 35.9301 17 34.9762 17 33.7043C17 32.4324 17.8315 31.4785 18.9402 31.4785C20.0489 31.4785 20.8804 32.5384 20.8804 33.7043Z" fill="#FFCF2D"/>
<path d="M37.4185 33.7042C37.4185 34.9761 36.587 35.9299 35.4783 35.9299C34.3696 35.9299 33.5381 34.9761 33.5381 33.7042C33.5381 32.4324 34.3696 31.4785 35.4783 31.4785C36.4946 31.4785 37.4185 32.5384 37.4185 33.7042Z" fill="#FFCF2D"/>
<path d="M53.8643 33.7043C53.8643 34.9762 53.0328 35.9301 51.9241 35.9301C50.8154 35.9301 49.9839 34.9762 49.9839 33.7043C49.9839 32.4324 50.8154 31.4785 51.9241 31.4785C53.0328 31.4785 53.8643 32.5384 53.8643 33.7043Z" fill="#FFCF2D"/>
<path d="M70.4024 33.7043C70.4024 34.9762 69.5709 35.9301 68.4622 35.9301C67.3535 35.9301 66.522 34.9762 66.522 33.7043C66.522 32.4324 67.3535 31.4785 68.4622 31.4785C69.5709 31.4785 70.4024 32.5384 70.4024 33.7043Z" fill="#FFCF2D"/>
<path d="M86.94 33.7043C86.94 34.9762 86.1085 35.9301 84.9998 35.9301C83.8911 35.9301 83.0596 34.9762 83.0596 33.7043C83.0596 32.4324 83.8911 31.4785 84.9998 31.4785C86.0161 31.4785 86.94 32.5384 86.94 33.7043Z" fill="#FFCF2D"/>
<path d="M103.478 33.7043C103.478 34.9762 102.647 35.9301 101.538 35.9301C100.429 35.9301 99.5977 34.9762 99.5977 33.7043C99.5977 32.4324 100.429 31.4785 101.538 31.4785C102.647 31.4785 103.478 32.5384 103.478 33.7043Z" fill="#FFCF2D"/>
<path d="M119.924 33.7043C119.924 34.9762 119.092 35.9301 117.984 35.9301C116.875 35.9301 116.043 34.9762 116.043 33.7043C116.043 32.4324 116.875 31.4785 117.984 31.4785C119.092 31.4785 119.924 32.5384 119.924 33.7043Z" fill="#FFCF2D"/>
<path d="M136.462 33.7043C136.462 34.9762 135.63 35.9301 134.522 35.9301C133.413 35.9301 132.582 34.9762 132.582 33.7043C132.582 32.4324 133.413 31.4785 134.522 31.4785C135.63 31.4785 136.462 32.5384 136.462 33.7043Z" fill="#FFCF2D"/>
<path d="M153 33.7042C153 34.9761 152.169 35.9299 151.06 35.9299C149.951 35.9299 149.12 34.9761 149.12 33.7042C149.12 32.4324 149.951 31.4785 151.06 31.4785C152.076 31.4785 153 32.5384 153 33.7042Z" fill="#FFCF2D"/>
<path d="M20.8804 49.4974C20.8804 50.7693 20.0489 51.7233 18.9402 51.7233C17.8315 51.7233 17 50.7693 17 49.4974C17 48.2254 17.8315 47.2715 18.9402 47.2715C20.0489 47.2715 20.8804 48.2254 20.8804 49.4974Z" fill="#FFCF2D"/>
<path d="M37.4185 49.4973C37.4185 50.7692 36.587 51.7231 35.4783 51.7231C34.3696 51.7231 33.5381 50.7692 33.5381 49.4973C33.5381 48.2254 34.3696 47.2715 35.4783 47.2715C36.4946 47.2715 37.4185 48.2254 37.4185 49.4973Z" fill="#FFCF2D"/>
<path d="M53.8643 49.4974C53.8643 50.7693 53.0328 51.7233 51.9241 51.7233C50.8154 51.7233 49.9839 50.7693 49.9839 49.4974C49.9839 48.2254 50.8154 47.2715 51.9241 47.2715C53.0328 47.2715 53.8643 48.2254 53.8643 49.4974Z" fill="#FFCF2D"/>
<path d="M70.4024 49.4974C70.4024 50.7693 69.5709 51.7233 68.4622 51.7233C67.3535 51.7233 66.522 50.7693 66.522 49.4974C66.522 48.2254 67.3535 47.2715 68.4622 47.2715C69.5709 47.2715 70.4024 48.2254 70.4024 49.4974Z" fill="#FFCF2D"/>
<path d="M86.94 49.4974C86.94 50.7693 86.1085 51.7233 84.9998 51.7233C83.8911 51.7233 83.0596 50.7693 83.0596 49.4974C83.0596 48.2254 83.8911 47.2715 84.9998 47.2715C86.0161 47.2715 86.94 48.2254 86.94 49.4974Z" fill="#FFCF2D"/>
<path d="M103.478 49.4974C103.478 50.7693 102.647 51.7233 101.538 51.7233C100.429 51.7233 99.5977 50.7693 99.5977 49.4974C99.5977 48.2254 100.429 47.2715 101.538 47.2715C102.647 47.2715 103.478 48.2254 103.478 49.4974Z" fill="#FFCF2D"/>
<path d="M119.924 49.4974C119.924 50.7693 119.092 51.7233 117.984 51.7233C116.875 51.7233 116.043 50.7693 116.043 49.4974C116.043 48.2254 116.875 47.2715 117.984 47.2715C119.092 47.2715 119.924 48.2254 119.924 49.4974Z" fill="#FFCF2D"/>
<path d="M136.462 49.4974C136.462 50.7693 135.63 51.7233 134.522 51.7233C133.413 51.7233 132.582 50.7693 132.582 49.4974C132.582 48.2254 133.413 47.2715 134.522 47.2715C135.63 47.2715 136.462 48.2254 136.462 49.4974Z" fill="#FFCF2D"/>
<path d="M153 49.4973C153 50.7692 152.169 51.7231 151.06 51.7231C149.951 51.7231 149.12 50.7692 149.12 49.4973C149.12 48.2254 149.951 47.2715 151.06 47.2715C152.076 47.2715 153 48.2254 153 49.4973Z" fill="#FFCF2D"/>
<path d="M20.8804 2.22583C20.8804 3.49773 20.0489 4.45166 18.9402 4.45166C17.8315 4.45166 17 3.49773 17 2.22583C17 0.953927 17.8315 0 18.9402 0C20.0489 0 20.8804 0.953927 20.8804 2.22583Z" fill="#FFCF2D"/>
<path d="M37.4185 2.22583C37.4185 3.49773 36.587 4.45166 35.4783 4.45166C34.3696 4.45166 33.5381 3.49773 33.5381 2.22583C33.5381 0.953927 34.3696 0 35.4783 0C36.4946 0 37.4185 0.953927 37.4185 2.22583Z" fill="#FFCF2D"/>
<path d="M53.8643 2.22583C53.8643 3.49773 53.0328 4.45166 51.9241 4.45166C50.8154 4.45166 49.9839 3.49773 49.9839 2.22583C49.9839 0.953927 50.9078 0 51.9241 0C53.0328 0 53.8643 0.953927 53.8643 2.22583Z" fill="#FFCF2D"/>
<path d="M70.4024 2.22583C70.4024 3.49773 69.5709 4.45166 68.4622 4.45166C67.3535 4.45166 66.522 3.49773 66.522 2.22583C66.522 0.953927 67.4459 0 68.4622 0C69.4785 0 70.4024 0.953927 70.4024 2.22583Z" fill="#FFCF2D"/>
<path d="M86.94 2.22583C86.94 3.49773 86.1085 4.45166 84.9998 4.45166C83.8911 4.45166 83.0596 3.49773 83.0596 2.22583C83.0596 0.953927 83.8911 0 84.9998 0C86.0161 0 86.94 0.953927 86.94 2.22583Z" fill="#FFCF2D"/>
<path d="M103.478 2.22583C103.478 3.49773 102.647 4.45166 101.538 4.45166C100.429 4.45166 99.5977 3.49773 99.5977 2.22583C99.5977 0.953927 100.429 0 101.538 0C102.647 0 103.478 0.953927 103.478 2.22583Z" fill="#FFCF2D"/>
<path d="M119.924 2.22577C119.924 3.49764 119.092 4.45154 117.984 4.45154C116.875 4.45154 116.043 3.49764 116.043 2.22577C116.043 0.953901 116.875 0 117.984 0C119.092 0 119.924 0.953901 119.924 2.22577Z" fill="#FFCF2D"/>
<path d="M136.462 2.22583C136.462 3.49773 135.63 4.45166 134.522 4.45166C133.413 4.45166 132.582 3.49773 132.582 2.22583C132.582 0.953927 133.413 0 134.522 0C135.63 0 136.462 0.953927 136.462 2.22583Z" fill="#FFCF2D"/>
<path d="M153 2.22583C153 3.49773 152.169 4.45166 151.06 4.45166C149.951 4.45166 149.12 3.49773 149.12 2.22583C149.12 0.953927 149.951 0 151.06 0C152.076 0 153 0.953927 153 2.22583Z" fill="#FFCF2D"/>
<path d="M20.8804 18.0189C20.8804 19.2908 20.0489 20.2448 18.9402 20.2448C17.8315 20.2448 17 19.1848 17 18.0189C17 16.7469 17.8315 15.793 18.9402 15.793C20.0489 15.793 20.8804 16.7469 20.8804 18.0189Z" fill="#FFCF2D"/>
<path d="M37.4185 18.0189C37.4185 19.2908 36.587 20.2448 35.4783 20.2448C34.3696 20.2448 33.5381 19.2908 33.5381 18.0189C33.5381 16.7469 34.3696 15.793 35.4783 15.793C36.4946 15.793 37.4185 16.7469 37.4185 18.0189Z" fill="#FFCF2D"/>
<path d="M53.8643 18.0189C53.8643 19.2908 53.0328 20.2448 51.9241 20.2448C50.8154 20.2448 49.9839 19.2908 49.9839 18.0189C49.9839 16.7469 50.8154 15.793 51.9241 15.793C53.0328 15.793 53.8643 16.7469 53.8643 18.0189Z" fill="#FFCF2D"/>
<path d="M70.4024 18.0188C70.4024 19.2907 69.5709 20.2446 68.4622 20.2446C67.3535 20.2446 66.522 19.2907 66.522 18.0188C66.522 16.7469 67.3535 15.793 68.4622 15.793C69.5709 15.793 70.4024 16.7469 70.4024 18.0188Z" fill="#FFCF2D"/>
<path d="M86.94 18.0189C86.94 19.2908 86.1085 20.2448 84.9998 20.2448C83.8911 20.2448 83.0596 19.2908 83.0596 18.0189C83.0596 16.7469 83.8911 15.793 84.9998 15.793C86.0161 15.793 86.94 16.7469 86.94 18.0189Z" fill="#FFCF2D"/>
<path d="M103.478 18.0189C103.478 19.2908 102.647 20.2448 101.538 20.2448C100.429 20.2448 99.5977 19.2908 99.5977 18.0189C99.5977 16.7469 100.429 15.793 101.538 15.793C102.647 15.793 103.478 16.7469 103.478 18.0189Z" fill="#FFCF2D"/>
<path d="M119.924 18.0189C119.924 19.2908 119.092 20.2448 117.984 20.2448C116.875 20.2448 116.043 19.2908 116.043 18.0189C116.043 16.7469 116.875 15.793 117.984 15.793C119.092 15.793 119.924 16.7469 119.924 18.0189Z" fill="#FFCF2D"/>
<path d="M136.462 18.0189C136.462 19.2908 135.63 20.2448 134.522 20.2448C133.413 20.2448 132.582 19.2908 132.582 18.0189C132.582 16.7469 133.413 15.793 134.522 15.793C135.63 15.793 136.462 16.7469 136.462 18.0189Z" fill="#FFCF2D"/>
<path d="M153 18.0189C153 19.2908 152.169 20.2448 151.06 20.2448C149.951 20.2448 149.12 19.2908 149.12 18.0189C149.12 16.7469 149.951 15.793 151.06 15.793C152.076 15.793 153 16.7469 153 18.0189Z" fill="#FFCF2D"/>
<path d="M20.8804 65.1848C20.8804 66.4566 20.0489 67.4105 18.9402 67.4105C17.8315 67.4105 17 66.4566 17 65.1848C17 63.9129 17.8315 62.959 18.9402 62.959C20.0489 62.959 20.8804 64.0189 20.8804 65.1848Z" fill="#FFCF2D"/>
<path d="M37.4185 65.1847C37.4185 66.4565 36.587 67.4104 35.4783 67.4104C34.3696 67.4104 33.5381 66.4565 33.5381 65.1847C33.5381 63.9129 34.3696 62.959 35.4783 62.959C36.4946 62.959 37.4185 64.0188 37.4185 65.1847Z" fill="#FFCF2D"/>
<path d="M53.8643 65.1848C53.8643 66.4566 53.0328 67.4105 51.9241 67.4105C50.8154 67.4105 49.9839 66.4566 49.9839 65.1848C49.9839 63.9129 50.8154 62.959 51.9241 62.959C53.0328 62.959 53.8643 64.0189 53.8643 65.1848Z" fill="#FFCF2D"/>
<path d="M70.4024 65.1848C70.4024 66.4566 69.5709 67.4105 68.4622 67.4105C67.3535 67.4105 66.522 66.4566 66.522 65.1848C66.522 63.9129 67.3535 62.959 68.4622 62.959C69.5709 62.959 70.4024 64.0189 70.4024 65.1848Z" fill="#FFCF2D"/>
<path d="M86.94 65.1848C86.94 66.4566 86.1085 67.4105 84.9998 67.4105C83.8911 67.4105 83.0596 66.4566 83.0596 65.1848C83.0596 63.9129 83.8911 62.959 84.9998 62.959C86.0161 62.959 86.94 64.0189 86.94 65.1848Z" fill="#FFCF2D"/>
<path d="M103.478 65.1848C103.478 66.4566 102.647 67.4105 101.538 67.4105C100.429 67.4105 99.5977 66.4566 99.5977 65.1848C99.5977 63.9129 100.429 62.959 101.538 62.959C102.647 62.959 103.478 64.0189 103.478 65.1848Z" fill="#FFCF2D"/>
<path d="M119.924 65.1848C119.924 66.4566 119.092 67.4105 117.984 67.4105C116.875 67.4105 116.043 66.4566 116.043 65.1848C116.043 63.9129 116.875 62.959 117.984 62.959C119.092 62.959 119.924 64.0189 119.924 65.1848Z" fill="#FFCF2D"/>
<path d="M136.462 65.1848C136.462 66.4566 135.63 67.4105 134.522 67.4105C133.413 67.4105 132.582 66.4566 132.582 65.1848C132.582 63.9129 133.413 62.959 134.522 62.959C135.63 62.959 136.462 64.0189 136.462 65.1848Z" fill="#FFCF2D"/>
<path d="M153 65.1847C153 66.4565 152.169 67.4104 151.06 67.4104C149.951 67.4104 149.12 66.4565 149.12 65.1847C149.12 63.9129 149.951 62.959 151.06 62.959C152.076 62.959 153 64.0188 153 65.1847Z" fill="#FFCF2D"/>
<path d="M20.8804 80.9776C20.8804 82.2494 20.0489 83.2032 18.9402 83.2032C17.8315 83.2032 17 82.2494 17 80.9776C17 79.7058 17.8315 78.752 18.9402 78.752C20.0489 78.752 20.8804 79.7058 20.8804 80.9776Z" fill="#FFCF2D"/>
<path d="M37.4185 80.9777C37.4185 82.2495 36.587 83.2034 35.4783 83.2034C34.3696 83.2034 33.5381 82.2495 33.5381 80.9777C33.5381 79.7058 34.3696 78.752 35.4783 78.752C36.4946 78.752 37.4185 79.7058 37.4185 80.9777Z" fill="#FFCF2D"/>
<path d="M53.8643 80.9777C53.8643 82.2495 53.0328 83.2034 51.9241 83.2034C50.8154 83.2034 49.9839 82.2495 49.9839 80.9777C49.9839 79.7058 50.8154 78.752 51.9241 78.752C53.0328 78.752 53.8643 79.7058 53.8643 80.9777Z" fill="#FFCF2D"/>
<path d="M68.4622 83.2034C69.5337 83.2034 70.4024 82.2069 70.4024 80.9777C70.4024 79.7484 69.5337 78.752 68.4622 78.752C67.3906 78.752 66.522 79.7484 66.522 80.9777C66.522 82.2069 67.3906 83.2034 68.4622 83.2034Z" fill="#FFCF2D"/>
<path d="M86.94 80.9777C86.94 82.2495 86.1085 83.2034 84.9998 83.2034C83.8911 83.2034 83.0596 82.2495 83.0596 80.9777C83.0596 79.7058 83.8911 78.752 84.9998 78.752C86.0161 78.752 86.94 79.7058 86.94 80.9777Z" fill="#FFCF2D"/>
<path d="M103.478 80.9777C103.478 82.2495 102.647 83.2034 101.538 83.2034C100.429 83.2034 99.5977 82.2495 99.5977 80.9777C99.5977 79.7058 100.429 78.752 101.538 78.752C102.647 78.752 103.478 79.7058 103.478 80.9777Z" fill="#FFCF2D"/>
<path d="M119.924 80.9777C119.924 82.2495 119.092 83.2034 117.984 83.2034C116.875 83.2034 116.043 82.2495 116.043 80.9777C116.043 79.7058 116.875 78.752 117.984 78.752C119.092 78.752 119.924 79.7058 119.924 80.9777Z" fill="#FFCF2D"/>
<path d="M134.522 83.2032C135.593 83.2032 136.462 82.2068 136.462 80.9776C136.462 79.7484 135.593 78.752 134.522 78.752C133.45 78.752 132.582 79.7484 132.582 80.9776C132.582 82.2068 133.45 83.2032 134.522 83.2032Z" fill="#FFCF2D"/>
<path d="M153 80.9777C153 82.2495 152.169 83.2034 151.06 83.2034C149.951 83.2034 149.12 82.2495 149.12 80.9777C149.12 79.7058 149.951 78.752 151.06 78.752C152.076 78.752 153 79.7058 153 80.9777Z" fill="#FFCF2D"/>
<path d="M20.8804 96.7689C20.8804 98.0408 20.0489 98.9948 18.9402 98.9948C17.8315 98.9948 17 98.0408 17 96.7689C17 95.4969 17.8315 94.543 18.9402 94.543C20.0489 94.543 20.8804 95.4969 20.8804 96.7689Z" fill="#FFCF2D"/>
<path d="M37.4185 96.7689C37.4185 98.0408 36.587 98.9948 35.4783 98.9948C34.3696 98.9948 33.5381 98.0408 33.5381 96.7689C33.5381 95.4969 34.3696 94.543 35.4783 94.543C36.4946 94.543 37.4185 95.4969 37.4185 96.7689Z" fill="#FFCF2D"/>
<path d="M53.8643 96.7689C53.8643 98.0408 53.0328 98.9948 51.9241 98.9948C50.8154 98.9948 49.9839 98.0408 49.9839 96.7689C49.9839 95.4969 50.8154 94.543 51.9241 94.543C53.0328 94.543 53.8643 95.4969 53.8643 96.7689Z" fill="#FFCF2D"/>
<path d="M70.4024 96.7689C70.4024 98.0408 69.5709 98.9948 68.4622 98.9948C67.3535 98.9948 66.522 98.0408 66.522 96.7689C66.522 95.4969 67.3535 94.543 68.4622 94.543C69.5709 94.543 70.4024 95.4969 70.4024 96.7689Z" fill="#FFCF2D"/>
<path d="M86.94 96.7689C86.94 98.0408 86.1085 98.9948 84.9998 98.9948C83.8911 98.9948 83.0596 98.0408 83.0596 96.7689C83.0596 95.4969 83.8911 94.543 84.9998 94.543C86.0161 94.543 86.94 95.4969 86.94 96.7689Z" fill="#FFCF2D"/>
<path d="M103.478 96.7689C103.478 98.0408 102.647 98.9948 101.538 98.9948C100.429 98.9948 99.5977 98.0408 99.5977 96.7689C99.5977 95.4969 100.429 94.543 101.538 94.543C102.647 94.543 103.478 95.4969 103.478 96.7689Z" fill="#FFCF2D"/>
<path d="M119.924 96.7689C119.924 98.0408 119.092 98.9948 117.984 98.9948C116.875 98.9948 116.043 98.0408 116.043 96.7689C116.043 95.4969 116.875 94.543 117.984 94.543C119.092 94.543 119.924 95.4969 119.924 96.7689Z" fill="#FFCF2D"/>
<path d="M136.462 96.7689C136.462 98.0408 135.63 98.9948 134.522 98.9948C133.413 98.9948 132.582 98.0408 132.582 96.7689C132.582 95.4969 133.413 94.543 134.522 94.543C135.63 94.543 136.462 95.4969 136.462 96.7689Z" fill="#FFCF2D"/>
<path d="M153 96.7689C153 98.0408 152.169 98.9948 151.06 98.9948C149.951 98.9948 149.12 98.0408 149.12 96.7689C149.12 95.4969 149.951 94.543 151.06 94.543C152.076 94.543 153 95.4969 153 96.7689Z" fill="#FFCF2D"/>
<path d="M20.8804 112.456C20.8804 113.728 20.0489 114.682 18.9402 114.682C17.8315 114.682 17 113.728 17 112.456C17 111.184 17.8315 110.23 18.9402 110.23C20.0489 110.23 20.8804 111.29 20.8804 112.456Z" fill="#FFCF2D"/>
<path d="M37.4185 112.456C37.4185 113.728 36.587 114.682 35.4783 114.682C34.3696 114.682 33.5381 113.728 33.5381 112.456C33.5381 111.184 34.3696 110.23 35.4783 110.23C36.4946 110.23 37.4185 111.29 37.4185 112.456Z" fill="#FFCF2D"/>
<path d="M53.8643 112.456C53.8643 113.728 53.0328 114.682 51.9241 114.682C50.8154 114.682 49.9839 113.728 49.9839 112.456C49.9839 111.184 50.8154 110.23 51.9241 110.23C53.0328 110.23 53.8643 111.29 53.8643 112.456Z" fill="#FFCF2D"/>
<path d="M70.4024 112.456C70.4024 113.728 69.5709 114.682 68.4622 114.682C67.3535 114.682 66.522 113.728 66.522 112.456C66.522 111.184 67.3535 110.23 68.4622 110.23C69.5709 110.23 70.4024 111.29 70.4024 112.456Z" fill="#FFCF2D"/>
<path d="M86.94 112.456C86.94 113.728 86.1085 114.682 84.9998 114.682C83.8911 114.682 83.0596 113.728 83.0596 112.456C83.0596 111.184 83.8911 110.23 84.9998 110.23C86.0161 110.23 86.94 111.29 86.94 112.456Z" fill="#FFCF2D"/>
<path d="M103.478 112.456C103.478 113.728 102.647 114.682 101.538 114.682C100.429 114.682 99.5977 113.728 99.5977 112.456C99.5977 111.184 100.429 110.23 101.538 110.23C102.647 110.23 103.478 111.29 103.478 112.456Z" fill="#FFCF2D"/>
<path d="M119.924 112.456C119.924 113.728 119.092 114.682 117.984 114.682C116.875 114.682 116.043 113.728 116.043 112.456C116.043 111.184 116.875 110.23 117.984 110.23C119.092 110.23 119.924 111.29 119.924 112.456Z" fill="#FFCF2D"/>
<path d="M136.462 112.456C136.462 113.728 135.63 114.682 134.522 114.682C133.413 114.682 132.582 113.728 132.582 112.456C132.582 111.184 133.413 110.23 134.522 110.23C135.63 110.23 136.462 111.29 136.462 112.456Z" fill="#FFCF2D"/>
<path d="M153 112.456C153 113.728 152.169 114.682 151.06 114.682C149.951 114.682 149.12 113.728 149.12 112.456C149.12 111.184 149.951 110.23 151.06 110.23C152.076 110.23 153 111.29 153 112.456Z" fill="#FFCF2D"/>
<defs>
<clipPath id="clip0_2617_456">
<rect width="242" height="242" fill="white" transform="translate(1651 363)"/>
</clipPath>
</defs>
</svg>
